<?xml version="1.0" encoding="UTF-8" standalone="no"?>
<!-- Created with Inkscape (http://www.inkscape.org/) -->

<svg
   width="274.40176mm"
   height="58.955734mm"
   viewBox="0 0 274.40176 58.955734"
   version="1.1"
   id="svg5"
   xmlns:inkscape="http://www.inkscape.org/namespaces/inkscape"
   xmlns:sodipodi="http://sodipodi.sourceforge.net/DTD/sodipodi-0.dtd"
   xmlns="http://www.w3.org/2000/svg"
   xmlns:svg="http://www.w3.org/2000/svg">
  <sodipodi:namedview
     id="namedview7"
     pagecolor="#ffffff"
     bordercolor="#000000"
     borderopacity="0.25"
     inkscape:showpageshadow="2"
     inkscape:pageopacity="0.0"
     inkscape:pagecheckerboard="0"
     inkscape:deskcolor="#d1d1d1"
     inkscape:document-units="mm"
     showgrid="false" />
  <defs
     id="defs2" />
  <g
     inkscape:label="Capa 1"
     inkscape:groupmode="layer"
     id="layer1"
     transform="translate(-11.299118,-75.522135)">
    <g
       id="g2010"
       transform="translate(2e-6,-14.460345)">
      <g
         aria-label="DI EXPLENDORE"
         id="text236"
         style="font-weight:bold;font-size:40.864px;font-family:Boska;-inkscape-font-specification:'Boska Bold';stroke-width:1.92882;stroke-miterlimit:0"
         inkscape:label="text236">
        <path
           d="m 11.299116,90.718032 h 2.615296 v 28.563938 h -2.615296 v 0.32691 H 21.96462 c 8.58144,0 12.218335,-5.92528 12.218335,-15.324 0,-9.684768 -3.882079,-13.89376 -13.035615,-13.89376 h -9.848224 z m 9.848224,0 c 5.557504,0 7.314656,4.0864 7.314656,13.566848 0,9.43958 -1.593696,14.99709 -6.497376,14.99709 H 19.51278 V 90.718032 Z"
           id="path1732"
           style="fill:#eeebd3;fill-opacity:1" />
        <path
           d="M 47.300268,119.28197 H 44.684972 V 90.718032 h 2.615296 V 90.39112 h -10.82896 v 0.326912 h 2.615296 v 28.563938 h -2.615296 v 0.32691 h 10.82896 z"
           id="path1734"
           style="fill:#eeebd3;fill-opacity:1" />
        <path
           d="m 76.395416,112.62114 c 0,3.26912 -1.675424,6.66083 -4.90368,6.66083 h -4.781088 v -13.93463 h 2.288384 c 1.879744,0 3.105664,0.89901 4.535904,2.65616 v -5.63923 c -1.307648,1.5937 -2.65616,2.65616 -4.535904,2.65616 H 66.710648 V 90.718032 h 4.49504 c 3.228256,0 4.90368,3.391712 4.90368,6.660832 h 0.40864 V 90.39112 H 58.496985 v 0.326912 h 2.615296 v 28.563938 h -2.615296 v 0.32691 h 18.307071 v -6.98774 z"
           id="path1736"
           style="fill:#eeebd3;fill-opacity:1" />
        <path
           d="m 85.467236,119.28197 h -0.939872 c -1.716288,0 -2.410976,-0.53123 -2.410976,-1.26679 0,-0.28604 0.04086,-0.57209 0.20432,-0.899 l 5.680096,-10.70637 5.189728,11.64624 c 0.163456,0.40864 0.245184,0.77641 0.286048,1.22592 h -2.492704 v 0.32691 h 10.747234 v -0.32691 h -0.49037 c -0.93987,0 -1.634561,-0.36778 -2.288385,-1.87975 l -6.538239,-14.87449 5.189728,-9.807362 c 0.899008,-1.716288 1.307647,-2.002336 3.309986,-2.002336 V 90.39112 h -6.865154 v 0.326912 h 0.980736 c 1.552832,0 2.24752,0.531232 2.24752,1.22592 0,0.286048 -0.04086,0.572096 -0.245184,0.939872 l -4.862816,9.153536 -4.454176,-10.093408 c -0.20432,-0.40864 -0.245184,-0.81728 -0.286048,-1.22592 h 2.45184 V 90.39112 h -10.82896 v 0.326912 h 0.61296 c 0.899008,0 1.552832,0.326912 2.206656,1.757152 l 5.92528,13.444256 -6.007008,11.36019 c -0.899008,1.63456 -1.22592,2.00234 -3.228256,2.00234 v 0.32691 h 6.906016 z"
           id="path1738"
           style="fill:#eeebd3;fill-opacity:1" />
        <path
           d="m 103.52916,90.718032 h 2.61529 v 28.563938 h -2.61529 v 0.32691 h 11.15587 v -0.32691 h -2.94221 V 90.758896 h 1.79802 c 3.96381,0 5.06713,3.759488 5.06713,8.091072 0,5.394052 -1.51196,8.295392 -4.29072,8.295392 h -1.43024 v 0.32691 h 1.43024 c 5.14887,0 9.92996,-2.53357 9.92996,-8.622302 0,-4.821952 -2.98308,-8.458848 -10.70637,-8.458848 h -10.01168 z"
           id="path1740"
           style="fill:#eeebd3;fill-opacity:1" />
        <path
           d="m 144.72009,112.62114 c 0,3.43257 -2.28838,6.66083 -5.51664,6.66083 H 134.831 V 90.718032 h 2.6153 V 90.39112 h -10.82896 v 0.326912 h 2.61529 v 28.563938 h -2.61529 v 0.32691 h 18.51139 v -6.98774 z"
           id="path1742"
           style="fill:#eeebd3;fill-opacity:1" />
        <path
           d="m 165.23382,112.62114 c 0,3.26912 -1.67543,6.66083 -4.90368,6.66083 h -4.78109 v -13.93463 h 2.28838 c 1.87975,0 3.10567,0.89901 4.53591,2.65616 v -5.63923 c -1.30765,1.5937 -2.65616,2.65616 -4.53591,2.65616 h -2.28838 V 90.718032 h 4.49504 c 3.22826,0 4.90368,3.391712 4.90368,6.660832 h 0.40864 V 90.39112 h -18.02102 v 0.326912 h 2.61529 v 28.563938 h -2.61529 v 0.32691 h 18.30707 v -6.98774 z"
           id="path1744"
           style="fill:#eeebd3;fill-opacity:1" />
        <path
           d="m 188.03593,93.537648 c 0,-1.83888 0.61296,-2.819616 2.94221,-2.819616 V 90.39112 h -7.23293 v 0.326912 c 2.41098,0 3.88208,0.653824 3.88208,2.819616 V 109.5972 L 176.59401,90.39112 h -8.70403 v 0.326912 h 2.6153 v 25.417408 c 0,2.16579 -0.61296,3.14653 -2.94221,3.14653 v 0.32691 h 6.94688 v -0.32691 c -2.73789,0 -3.59603,-0.98074 -3.59603,-3.14653 V 91.862224 l 16.30473,27.746656 h 0.81728 z"
           id="path1746"
           style="fill:#eeebd3;fill-opacity:1" />
        <path
           d="m 192.81706,90.718032 h 2.6153 v 28.563938 h -2.6153 v 0.32691 h 10.6655 c 8.58144,0 12.21834,-5.92528 12.21834,-15.324 0,-9.684768 -3.88208,-13.89376 -13.03562,-13.89376 h -9.84822 z m 9.84822,0 c 5.55751,0 7.31466,4.0864 7.31466,13.566848 0,9.43958 -1.5937,14.99709 -6.49738,14.99709 h -2.45184 V 90.718032 Z"
           id="path1748"
           style="fill:#eeebd3;fill-opacity:1" />
        <path
           d="m 239.81064,104.85698 c 0,-10.093412 -3.5143,-14.8745 -10.46118,-14.8745 -6.86515,0 -10.42032,4.781088 -10.42032,14.8745 -0.0409,10.25686 3.47344,15.16054 10.42032,15.16054 6.94688,0 10.46118,-4.90368 10.46118,-15.16054 z m -5.76182,0 c 0,11.48278 -1.10333,14.83363 -4.69936,14.83363 -3.59603,0 -4.69936,-3.35085 -4.69936,-14.83363 0,-11.237604 1.06246,-14.547588 4.65849,-14.547588 3.6369,0 4.74023,3.309984 4.74023,14.547588 z"
           id="path1750"
           style="fill:#eeebd3;fill-opacity:1" />
        <path
           d="m 242.09901,90.718032 h 2.6153 v 28.563938 h -2.6153 v 0.32691 h 10.82896 v -0.32691 h -2.61529 V 90.758896 h 2.12492 c 3.80036,0 4.29072,3.187392 4.29072,7.028608 0,3.882076 -0.98073,7.192066 -4.29072,7.192066 h -0.98073 v 0.20432 c 2.0432,0 2.53357,1.10333 3.14653,2.94221 l 2.20665,7.43724 c 0.98074,3.1874 2.81962,4.04554 5.92528,4.04554 h 3.43258 v -0.32691 c -1.96147,0 -2.69703,-0.5721 -4.00467,-4.98541 l -1.34852,-4.37245 c -1.0216,-3.39171 -2.4927,-4.69936 -5.02627,-5.23059 3.67776,-0.61296 6.57911,-2.81962 6.57911,-7.1512 0,-4.168128 -3.10567,-7.1512 -9.97082,-7.1512 h -10.29773 z"
           id="path1752"
           style="fill:#eeebd3;fill-opacity:1" />
        <path
           d="m 285.29224,112.62114 c 0,3.26912 -1.67542,6.66083 -4.90368,6.66083 h -4.78108 v -13.93463 h 2.28838 c 1.87974,0 3.10566,0.89901 4.5359,2.65616 v -5.63923 c -1.30764,1.5937 -2.65616,2.65616 -4.5359,2.65616 h -2.28838 V 90.718032 h 4.49504 c 3.22825,0 4.90368,3.391712 4.90368,6.660832 h 0.40864 V 90.39112 h -18.02103 v 0.326912 h 2.6153 v 28.563938 h -2.6153 v 0.32691 h 18.30707 v -6.98774 z"
           id="path1754"
           style="fill:#eeebd3;fill-opacity:1" />
      </g>
      <g
         aria-label="digital exhibition"
         id="text398"
         style="font-style:italic;font-size:26.9486px;font-family:Boska;-inkscape-font-specification:'Boska Italic';fill:#eeebd3;fill-opacity:1;stroke-width:1.272;stroke-miterlimit:0">
        <path
           d="m 116.65222,122.87891 h 1.8864 l -1.48217,8.19237 c -0.40423,-0.8893 -1.37438,-1.53607 -2.82961,-1.53607 -4.25788,0 -6.52156,4.60821 -6.52156,8.89304 0,2.85655 1.21269,4.71601 3.9345,4.71601 1.72471,0 3.01824,-1.15879 3.63806,-2.61402 l 0.26948,-0.59287 c -0.29643,1.50913 -0.35033,1.9403 -0.35033,2.15589 0,0.45813 0.26949,0.78151 1.13184,0.78151 h 2.26369 l 0.0269,-0.21559 h -1.21268 c -0.37728,0 -0.53897,-0.16169 -0.53897,-0.48507 0,-0.16169 0.0269,-0.45813 0.13474,-1.051 l 3.20688,-18.45979 h -3.53026 z m -7.16833,16.06137 c 0,-3.77281 1.26658,-9.10863 4.98549,-9.10863 1.34743,0 2.18284,0.75456 2.50622,1.67081 l -1.26658,7.43782 -0.61982,1.45522 c -0.51203,1.26658 -1.72471,2.34453 -2.9374,2.34453 -2.45232,0 -2.66791,-1.8864 -2.66791,-3.79975 z"
           id="path1877"
           style="fill:#eeebd3;fill-opacity:1" />
        <path
           d="m 125.19492,126.38223 c 0.72761,0 1.34743,-0.61982 1.34743,-1.37438 0,-0.45813 -0.37729,-0.80846 -0.88931,-0.80846 -0.72761,0 -1.29353,0.64677 -1.29353,1.34743 0,0.45813 0.32338,0.83541 0.83541,0.83541 z m 0.40422,3.42247 h -3.53026 l -0.0539,0.21559 h 1.8864 l -1.96725,11.21062 c -0.0808,0.37728 -0.10779,0.67371 -0.10779,0.86235 0,0.45813 0.26949,0.78151 1.13184,0.78151 h 2.23674 l 0.0269,-0.21559 h -1.18573 c -0.40423,0 -0.56593,-0.16169 -0.56593,-0.48507 0,-0.16169 0.0269,-0.37728 0.13475,-1.051 z"
           id="path1879"
           style="fill:#eeebd3;fill-opacity:1" />
        <path
           d="m 137.07926,143.81797 c 0,-1.53607 -0.9432,-2.37147 -3.44942,-2.37147 h -3.15298 c -1.21269,0 -1.67082,-0.0808 -1.67082,-0.67372 0,-1.051 1.64387,-2.50622 3.79976,-2.50622 3.88059,0 5.68615,-2.50622 5.68615,-5.06634 0,-1.48217 -0.64677,-2.53317 -1.77861,-3.12603 h 2.82961 l 0.0539,-0.26949 h -3.50332 c -0.53897,-0.18864 -1.13184,-0.26949 -1.75165,-0.26949 -3.8806,0 -5.65921,2.50622 -5.65921,4.8238 0,2.02115 1.13184,3.44942 3.12604,3.8267 -2.07505,0.32339 -3.66501,1.75166 -3.66501,3.31468 0,1.1049 0.8893,1.53607 2.45232,1.53607 h 2.64096 c 2.23674,0 2.9374,0.59287 2.9374,1.67082 0,2.15588 -2.45232,3.96144 -5.30887,3.96144 -1.91335,0 -2.77571,-0.75456 -2.77571,-1.9403 0,-1.15879 0.72761,-1.77861 1.83251,-2.10199 l 0.64676,-0.18864 -0.0269,-0.18864 -0.78151,0.18864 c -1.8325,0.40423 -3.17993,1.21269 -3.17993,2.53317 0,1.40133 1.72471,1.96725 3.79975,1.96725 3.8267,0 6.89884,-2.37148 6.89884,-5.12024 z m -4.39262,-5.767 c -1.64386,0 -2.45232,-1.26658 -2.45232,-3.23383 0,-2.29063 1.02405,-5.06634 3.7728,-5.06634 1.61692,0 2.50622,0.9971 2.50622,3.01825 0,2.47927 -1.07794,5.28192 -3.8267,5.28192 z"
           id="path1881"
           style="fill:#eeebd3;fill-opacity:1" />
        <path
           d="m 144.27453,126.38223 c 0.72761,0 1.34743,-0.61982 1.34743,-1.37438 0,-0.45813 -0.37728,-0.80846 -0.8893,-0.80846 -0.72762,0 -1.29354,0.64677 -1.29354,1.34743 0,0.45813 0.32339,0.83541 0.83541,0.83541 z m 0.40423,3.42247 h -3.53027 l -0.0539,0.21559 h 1.88641 l -1.96725,11.21062 c -0.0808,0.37728 -0.1078,0.67371 -0.1078,0.86235 0,0.45813 0.26949,0.78151 1.13185,0.78151 h 2.23673 l 0.0269,-0.21559 h -1.18574 c -0.40423,0 -0.56592,-0.16169 -0.56592,-0.48507 0,-0.16169 0.0269,-0.37728 0.13474,-1.051 z"
           id="path1883"
           style="fill:#eeebd3;fill-opacity:1" />
        <path
           d="m 147.99345,130.02029 h 1.48217 l -1.64386,9.5398 c -0.0539,0.32339 -0.0808,0.64677 -0.0808,0.97015 0,1.64387 0.83541,2.61402 2.37148,2.61402 0.97015,0 1.69776,-0.32339 2.20979,-1.07795 l -0.13475,-0.0808 c -0.37728,0.48507 -0.80845,0.70066 -1.42827,0.70066 -0.9432,0 -1.40133,-0.61982 -1.40133,-1.8325 0,-0.37728 0.0539,-0.78151 0.13474,-1.26659 l 1.67082,-9.56675 h 2.7757 l 0.0539,-0.21559 h -2.77571 l 0.56592,-3.26078 h -0.26948 c -0.70067,1.9942 -1.34743,3.26078 -3.09909,3.26078 h -0.37728 z"
           id="path1885"
           style="fill:#eeebd3;fill-opacity:1" />
        <path
           d="m 161.92589,140.53024 0.24254,-0.56592 c -0.24254,1.45523 -0.29644,1.85946 -0.29644,2.12894 0,0.45813 0.21559,0.78151 1.1049,0.78151 h 2.26368 l 0.0269,-0.21559 h -1.21269 c -0.40423,0 -0.53897,-0.16169 -0.53897,-0.48507 0,-0.16169 0.0269,-0.45813 0.10779,-1.051 l 1.9942,-11.31841 h -1.69776 l -0.21559,1.23964 c -0.43118,-0.86236 -1.40133,-1.50913 -2.8296,-1.50913 -4.25788,0 -6.52157,4.63516 -6.52157,8.91999 0,2.8296 1.26659,4.68906 3.9345,4.68906 1.72471,0 2.99129,-1.1049 3.63806,-2.61402 z m -5.79395,-1.80555 c 0,-3.53027 1.26659,-8.86609 4.95854,-8.86609 1.34743,0 2.20979,0.72761 2.53317,1.64386 l -1.29353,7.49171 -0.59287,1.40133 c -0.53897,1.29353 -1.72471,2.34453 -2.9374,2.34453 -2.45232,0 -2.66791,-2.10199 -2.66791,-4.01534 z"
           id="path1887"
           style="fill:#eeebd3;fill-opacity:1" />
        <path
           d="m 168.5283,141.23091 c -0.0808,0.37728 -0.13474,0.67371 -0.13474,0.86235 0,0.45813 0.26948,0.78151 1.15878,0.78151 h 2.26369 l 0.0269,-0.21559 h -1.23964 c -0.37728,0 -0.53897,-0.16169 -0.53897,-0.48507 0,-0.16169 0.0269,-0.45813 0.13474,-1.051 l 3.20688,-18.45979 h -3.55721 l -0.0539,0.21559 h 1.8864 z"
           id="path1889"
           style="fill:#eeebd3;fill-opacity:1" />
        <path
           d="m 185.82927,142.74003 c -2.64096,0 -3.44942,-2.07504 -3.44942,-4.90465 0,-4.31177 1.53607,-8.08458 4.79685,-8.08458 1.58997,0 2.07504,0.9432 2.07504,2.0481 0,2.02114 -1.18573,3.85365 -4.55431,3.85365 h -1.15879 v 0.18864 h 1.18574 c 3.63806,0 6.11733,-1.37438 6.11733,-3.85365 0,-1.45523 -1.13184,-2.45233 -3.63806,-2.45233 -3.90755,0 -6.62936,3.69196 -6.62936,8.46186 0,3.36858 1.80556,5.14719 4.58127,5.14719 2.58706,0 4.12313,-1.67082 4.39262,-3.50332 h -0.24254 c -0.24254,1.61692 -1.53607,3.09909 -3.47637,3.09909 z"
           id="path1891"
           style="fill:#eeebd3;fill-opacity:1" />
        <path
           d="m 195.18041,140.23381 1.88641,-3.26078 2.12894,4.87769 c 0.35033,0.83541 1.02404,1.02405 1.61691,1.02405 h 1.8864 l 0.0539,-0.21559 h -0.21559 c -0.8354,0 -1.34743,-0.29643 -1.75166,-1.34743 l -2.37147,-5.47056 1.8864,-3.26078 c 0.97015,-1.67082 1.67081,-1.88641 2.37148,-1.88641 0.51202,0 0.8893,0.21559 0.91625,0.75456 l 0.0808,0.027 c 0.32339,-0.21559 0.59287,-0.59287 0.59287,-1.07794 0,-0.43118 -0.29643,-0.86236 -0.9971,-0.86236 -1.18573,0 -2.02114,0.9971 -3.15298,2.96435 l -1.80556,3.07214 -2.10199,-4.74295 c -0.35033,-0.83541 -0.8893,-1.02405 -1.48217,-1.02405 h -1.83251 l -0.0539,0.21559 h 0.21559 c 0.8354,0 1.10489,0.29643 1.56301,1.34743 l 2.31758,5.33582 -1.8864,3.26078 c -1.02405,1.83251 -1.80555,2.0481 -2.47927,2.0481 -0.45813,0 -0.86235,-0.18864 -0.8893,-0.72762 l -0.0808,-0.0269 c -0.32338,0.24253 -0.56592,0.61981 -0.56592,1.02404 0,0.48508 0.26949,0.86236 0.97015,0.86236 1.13184,0 1.9942,-0.80846 3.17993,-2.91045 z"
           id="path1893"
           style="fill:#eeebd3;fill-opacity:1" />
        <path
           d="m 208.78948,133.84699 0.70066,-1.13184 c 1.32048,-2.0481 2.61402,-2.77571 3.85365,-2.77571 1.10489,0 1.61692,0.51203 1.61692,1.85946 0,0.59287 -0.0808,1.40132 -0.26949,2.39842 l -1.21269,7.03359 c -0.0539,0.37728 -0.10779,0.67371 -0.10779,0.86235 0,0.45813 0.26949,0.78151 1.13184,0.78151 h 2.26368 l 0.0269,-0.21559 h -1.21269 c -0.40422,0 -0.56592,-0.16169 -0.56592,-0.48507 0,-0.16169 0.0269,-0.37728 0.13475,-1.051 l 1.21268,-6.92579 c 0.13475,-0.70066 0.18864,-1.29353 0.18864,-1.80555 0,-2.18284 -1.02404,-2.85656 -2.64096,-2.85656 -1.56302,0 -3.12604,0.67372 -4.60821,3.01825 l -0.40423,0.64676 1.85946,-10.5369 h -3.55722 l -0.0539,0.21559 h 1.8864 l -3.50331,19.99586 h 1.67081 z"
           id="path1895"
           style="fill:#eeebd3;fill-opacity:1" />
        <path
           d="m 223.58428,126.38223 c 0.72761,0 1.34743,-0.61982 1.34743,-1.37438 0,-0.45813 -0.37728,-0.80846 -0.8893,-0.80846 -0.72762,0 -1.29354,0.64677 -1.29354,1.34743 0,0.45813 0.32339,0.83541 0.83541,0.83541 z m 0.40423,3.42247 h -3.53027 l -0.0539,0.21559 h 1.88641 l -1.96725,11.21062 c -0.0808,0.37728 -0.1078,0.67371 -0.1078,0.86235 0,0.45813 0.26949,0.78151 1.13185,0.78151 h 2.23673 l 0.0269,-0.21559 h -1.18574 c -0.40423,0 -0.56592,-0.16169 -0.56592,-0.48507 0,-0.16169 0.0269,-0.37728 0.13474,-1.051 z"
           id="path1897"
           style="fill:#eeebd3;fill-opacity:1" />
        <path
           d="m 237.89401,134.22427 c 0,-2.8296 -1.1049,-4.68906 -3.82671,-4.68906 -1.72471,0 -3.15298,1.15879 -3.7728,2.61402 l -0.24254,0.59287 1.77861,-10.07878 h -3.58416 l -0.0269,0.21559 h 1.8864 l -3.50332,19.99586 h 1.67081 l 0.21559,-1.29353 c 0.45813,0.8893 1.42828,1.56302 2.85656,1.56302 4.25787,0 6.54851,-4.63516 6.54851,-8.91999 z m -7.41087,-1.9403 c 0.53897,-1.26658 1.85945,-2.37148 3.07214,-2.37148 2.23673,0 2.53317,1.91335 2.53317,4.04229 0,3.53027 -1.26659,8.86609 -4.95854,8.86609 -1.34743,0 -2.20979,-0.78151 -2.53317,-1.67081 l 1.29353,-7.41086 z"
           id="path1899"
           style="fill:#eeebd3;fill-opacity:1" />
        <path
           d="m 243.82271,126.38223 c 0.72762,0 1.34743,-0.61982 1.34743,-1.37438 0,-0.45813 -0.37728,-0.80846 -0.8893,-0.80846 -0.72761,0 -1.29353,0.64677 -1.29353,1.34743 0,0.45813 0.32338,0.83541 0.8354,0.83541 z m 0.40423,3.42247 h -3.53026 l -0.0539,0.21559 h 1.8864 l -1.96725,11.21062 c -0.0808,0.37728 -0.10779,0.67371 -0.10779,0.86235 0,0.45813 0.26948,0.78151 1.13184,0.78151 h 2.23673 l 0.0269,-0.21559 h -1.18574 c -0.40423,0 -0.56592,-0.16169 -0.56592,-0.48507 0,-0.16169 0.0269,-0.37728 0.13475,-1.051 z"
           id="path1901"
           style="fill:#eeebd3;fill-opacity:1" />
        <path
           d="m 247.54164,130.02029 h 1.48217 l -1.64386,9.5398 c -0.0539,0.32339 -0.0808,0.64677 -0.0808,0.97015 0,1.64387 0.83541,2.61402 2.37148,2.61402 0.97015,0 1.69776,-0.32339 2.20978,-1.07795 l -0.13474,-0.0808 c -0.37728,0.48507 -0.80846,0.70066 -1.42828,0.70066 -0.9432,0 -1.40132,-0.61982 -1.40132,-1.8325 0,-0.37728 0.0539,-0.78151 0.13474,-1.26659 l 1.67081,-9.56675 h 2.77571 l 0.0539,-0.21559 h -2.77571 l 0.56592,-3.26078 h -0.26948 c -0.70067,1.9942 -1.34743,3.26078 -3.09909,3.26078 h -0.37728 z"
           id="path1903"
           style="fill:#eeebd3;fill-opacity:1" />
        <path
           d="m 257.88993,126.38223 c 0.72761,0 1.34743,-0.61982 1.34743,-1.37438 0,-0.45813 -0.37728,-0.80846 -0.88931,-0.80846 -0.72761,0 -1.29353,0.64677 -1.29353,1.34743 0,0.45813 0.32338,0.83541 0.83541,0.83541 z m 0.40423,3.42247 h -3.53027 l -0.0539,0.21559 h 1.88641 l -1.96725,11.21062 c -0.0808,0.37728 -0.1078,0.67371 -0.1078,0.86235 0,0.45813 0.26949,0.78151 1.13184,0.78151 h 2.23674 l 0.0269,-0.21559 h -1.18574 c -0.40423,0 -0.56592,-0.16169 -0.56592,-0.48507 0,-0.16169 0.0269,-0.37728 0.13474,-1.051 z"
           id="path1905"
           style="fill:#eeebd3;fill-opacity:1" />
        <path
           d="m 265.43554,143.14426 c 4.06924,0 6.57546,-4.12314 6.57546,-8.35407 0,-3.31468 -1.67081,-5.25498 -4.68906,-5.25498 -4.01534,0 -6.57546,4.09619 -6.57546,8.27322 0,3.36858 1.75166,5.33583 4.68906,5.33583 z m 0.0539,-0.21559 c -2.15589,0 -2.91045,-1.64387 -2.91045,-4.44652 0,-3.8806 1.50912,-8.73135 4.68905,-8.73135 2.20979,0 2.9374,1.64387 2.9374,4.44652 0,3.8806 -1.48217,8.73135 -4.716,8.73135 z"
           id="path1907"
           style="fill:#eeebd3;fill-opacity:1" />
        <path
           d="m 277.69715,133.82004 0.70066,-1.10489 c 1.29353,-2.07504 2.61401,-2.77571 3.85365,-2.77571 1.10489,0 1.64386,0.51203 1.64386,1.85946 0,0.59287 -0.10779,1.40132 -0.26948,2.39842 l -1.21269,7.03359 c -0.0808,0.37728 -0.13474,0.67371 -0.13474,0.86235 0,0.45813 0.26948,0.78151 1.15879,0.78151 h 2.23673 l 0.0269,-0.21559 h -1.21269 c -0.40423,0 -0.53897,-0.16169 -0.53897,-0.48507 0,-0.16169 0,-0.37728 0.1078,-1.051 l 1.23963,-6.92579 c 0.13475,-0.70066 0.18864,-1.29353 0.18864,-1.80555 0,-2.18284 -1.05099,-2.85656 -2.66791,-2.85656 -1.53607,0 -3.12604,0.67372 -4.58126,3.01825 l -0.43118,0.67371 0.59287,-3.42247 h -3.53027 l -0.0539,0.21559 h 1.8864 l -2.26368,12.85448 h 1.67081 z"
           id="path1909"
           style="fill:#eeebd3;fill-opacity:1" />
      </g>
    </g>
  </g>
</svg>
